<svg xmlns="http://www.w3.org/2000/svg" viewBox="0 0 200 160"><defs><linearGradient id="water" x2="0" y2="1"><stop stop-color="#92dce0"/><stop offset="1" stop-color="#3d98b2"/></linearGradient></defs><ellipse cx="100" cy="98" rx="87" ry="45" fill="#827555"/><ellipse cx="100" cy="91" rx="87" ry="45" fill="#cbb88b"/><ellipse cx="100" cy="89" rx="78" ry="36" fill="url(#water)"/><ellipse cx="100" cy="91" rx="50" ry="21" fill="#93a475"/><path d="m72 87 9-22 18 2 12 25-19 8Zm31-6 10-29 19 15 2 22-23 9" fill="#a6aa94" stroke="#788b77" stroke-width="2"/><path d="m24 85 14-8m9 46 19 4m88-54 16 10m-50 50 19-7" fill="none" stroke="#e0f7ec" stroke-width="3" stroke-linecap="round"/><g transform="translate(54 79)"><ellipse rx="22" ry="13" fill="#2c5657"/><ellipse cy="-4" rx="18" ry="11" fill="#dfac69"/><path d="M-13-6v-8h10v8M3-6v-8h10v8" fill="#de8575" stroke="#f0d6a2" stroke-width="2"/><ellipse cy="-1" rx="5" ry="3" fill="#d4e4cb"/></g><g transform="translate(145 112)"><ellipse rx="22" ry="13" fill="#2c5657"/><ellipse cy="-4" rx="18" ry="11" fill="#8fc5b2"/><path d="M-13-6v-8h10v8M3-6v-8h10v8" fill="#e4b36a" stroke="#f0d6a2" stroke-width="2"/><ellipse cy="-1" rx="5" ry="3" fill="#d4e4cb"/></g></svg>
